solid rover-case-placeholder
facet normal 0 0 -1
  outer loop
    vertex 0 0 0
    vertex 40 30 0
    vertex 40 0 0
  endloop
endfacet
facet normal 0 0 -1
  outer loop
    vertex 0 0 0
    vertex 0 30 0
    vertex 40 30 0
  endloop
endfacet
facet normal 0 0 1
  outer loop
    vertex 0 0 20
    vertex 40 0 20
    vertex 40 30 20
  endloop
endfacet
facet normal 0 0 1
  outer loop
    vertex 0 0 20
    vertex 40 30 20
    vertex 0 30 20
  endloop
endfacet
facet normal 0 -1 0
  outer loop
    vertex 0 0 0
    vertex 40 0 0
    vertex 40 0 20
  endloop
endfacet
facet normal 0 -1 0
  outer loop
    vertex 0 0 0
    vertex 40 0 20
    vertex 0 0 20
  endloop
endfacet
facet normal 0 1 0
  outer loop
    vertex 0 30 0
    vertex 40 30 20
    vertex 40 30 0
  endloop
endfacet
facet normal 0 1 0
  outer loop
    vertex 0 30 0
    vertex 0 30 20
    vertex 40 30 20
  endloop
endfacet
facet normal -1 0 0
  outer loop
    vertex 0 0 0
    vertex 0 30 20
    vertex 0 30 0
  endloop
endfacet
facet normal -1 0 0
  outer loop
    vertex 0 0 0
    vertex 0 0 20
    vertex 0 30 20
  endloop
endfacet
facet normal 1 0 0
  outer loop
    vertex 40 0 0
    vertex 40 30 0
    vertex 40 30 20
  endloop
endfacet
facet normal 1 0 0
  outer loop
    vertex 40 0 0
    vertex 40 30 20
    vertex 40 0 20
  endloop
endfacet
endsolid rover-case-placeholder
